<svg width="28" height="28" viewBox="0 0 28 28" fill="none" xmlns="http://www.w3.org/2000/svg">
<path d="M7.25406 4.3363C7.53007 4.33634 7.79646 4.43767 8.00271 4.62107C8.20896 4.80448 8.34073 5.0572 8.37302 5.33131L8.38091 5.46315V6.58999C8.94949 6.58981 9.49712 6.80455 9.91403 7.19116C10.3309 7.57777 10.5863 8.10767 10.629 8.67465L10.6346 8.84368V12.2242C10.6348 12.7928 10.42 13.3404 10.0334 13.7573C9.64682 14.1742 9.11691 14.4296 8.54993 14.4723L8.38091 14.4779V23.4926C8.38059 23.7798 8.27061 24.0561 8.07345 24.2649C7.87629 24.4738 7.60682 24.5995 7.3201 24.6163C7.03339 24.6331 6.75106 24.5398 6.53082 24.3555C6.31057 24.1712 6.16903 23.9097 6.13511 23.6245L6.12722 23.4926V14.4779C5.55864 14.4781 5.01101 14.2633 4.5941 13.8767C4.17719 13.4901 3.92181 12.9602 3.87917 12.3932L3.87354 12.2242V8.84368C3.87336 8.2751 4.08809 7.72746 4.4747 7.31055C4.86131 6.89364 5.39122 6.63827 5.95819 6.59562L6.12722 6.58999V5.46315C6.12722 5.16429 6.24594 4.87767 6.45727 4.66635C6.66859 4.45502 6.95521 4.3363 7.25406 4.3363ZM14.0151 4.3363C14.2911 4.33634 14.5575 4.43767 14.7638 4.62107C14.97 4.80448 15.1018 5.0572 15.1341 5.33131L15.142 5.46315V15.6047C15.7105 15.6046 16.2582 15.8193 16.6751 16.2059C17.092 16.5925 17.3474 17.1224 17.39 17.6894L17.3957 17.8584V21.2389C17.3958 21.8075 17.1811 22.3552 16.7945 22.7721C16.4079 23.189 15.878 23.4444 15.311 23.487L15.142 23.4926C15.1416 23.7798 15.0317 24.0561 14.8345 24.2649C14.6373 24.4738 14.3679 24.5995 14.0812 24.6163C13.7944 24.6331 13.5121 24.5398 13.2919 24.3555C13.0716 24.1712 12.9301 23.9097 12.8962 23.6245L12.8883 23.4926L12.7193 23.487C12.1827 23.4467 11.6782 23.2157 11.2971 22.8358C10.916 22.456 10.6834 21.9523 10.6414 21.4159L10.6346 21.2389V17.8584C10.6344 17.2898 10.8492 16.7422 11.2358 16.3253C11.6224 15.9084 12.1523 15.653 12.7193 15.6104L12.8883 15.6047V5.46315C12.8883 5.16429 13.007 4.87767 13.2183 4.66635C13.4296 4.45502 13.7163 4.3363 14.0151 4.3363ZM20.7762 4.3363C21.0522 4.33634 21.3186 4.43767 21.5248 4.62107C21.7311 4.80448 21.8628 5.0572 21.8951 5.33131L21.903 5.46315C22.4716 5.46297 23.0192 5.6777 23.4361 6.06431C23.8531 6.45092 24.1084 6.98083 24.1511 7.54781L24.1567 7.71683V12.2242C24.1569 12.7928 23.9422 13.3404 23.5555 13.7573C23.1689 14.1742 22.639 14.4296 22.072 14.4723L21.903 14.4779V23.4926C21.9027 23.7798 21.7927 24.0561 21.5956 24.2649C21.3984 24.4738 21.1289 24.5995 20.8422 24.6163C20.5555 24.6331 20.2732 24.5398 20.0529 24.3555C19.8327 24.1712 19.6911 23.9097 19.6572 23.6245L19.6493 23.4926V14.4779C19.0808 14.4781 18.5331 14.2633 18.1162 13.8767C17.6993 13.4901 17.4439 12.9602 17.4013 12.3932L17.3957 12.2242V7.71683C17.3955 7.14825 17.6102 6.60062 17.9968 6.18371C18.3834 5.7668 18.9133 5.51142 19.4803 5.46878L19.6493 5.46315C19.6493 5.16429 19.7681 4.87767 19.9794 4.66635C20.1907 4.45502 20.4773 4.3363 20.7762 4.3363Z" fill="#797979"/>
</svg>
