<svg width="24" height="23" viewBox="0 0 24 23" fill="none" xmlns="http://www.w3.org/2000/svg">
<path fill-rule="evenodd" clip-rule="evenodd" d="M1.18051 6.82968C0.57202 8.09963 0.78612 9.58593 1.21432 12.5574L1.52758 14.7401C2.07635 18.5579 2.3513 20.4656 3.67534 21.606C4.99939 22.7463 6.94094 22.7463 10.8252 22.7463H13.3177C17.202 22.7463 19.1435 22.7463 20.4676 21.606C21.7916 20.4656 22.0665 18.5579 22.6153 14.7401L22.9297 12.5574C23.3579 9.58593 23.572 8.09963 22.9624 6.82968C22.3528 5.55972 21.0569 4.78671 18.464 3.24293L16.9034 2.31329C14.5505 0.910369 13.3718 0.209473 12.0715 0.209473C10.7711 0.209473 9.59352 0.910369 7.23955 2.31329L5.67887 3.24293C3.08713 4.78671 1.79014 5.55972 1.18051 6.82968ZM7.84579 18.239C7.84579 18.0148 7.93483 17.7999 8.09332 17.6414C8.25182 17.4829 8.46678 17.3938 8.69092 17.3938H15.452C15.6761 17.3938 15.8911 17.4829 16.0496 17.6414C16.2081 17.7999 16.2971 18.0148 16.2971 18.239C16.2971 18.4631 16.2081 18.6781 16.0496 18.8366C15.8911 18.9951 15.6761 19.0841 15.452 19.0841H8.69092C8.46678 19.0841 8.25182 18.9951 8.09332 18.8366C7.93483 18.6781 7.84579 18.4631 7.84579 18.239Z" fill="url(#paint0_linear_3048_100)"/>
<defs>
<linearGradient id="paint0_linear_3048_100" x1="0.803223" y1="11.4779" x2="23.3406" y2="11.4779" gradientUnits="userSpaceOnUse">
<stop stop-color="#FFDF00"/>
<stop offset="0.28" stop-color="#F6D108"/>
<stop offset="0.54" stop-color="#EDC211"/>
<stop offset="0.78" stop-color="#E3B419"/>
<stop offset="1" stop-color="#DAA521"/>
</linearGradient>
</defs>
</svg>
